<svg width="235" height="214" viewBox="0 0 235 214" fill="none" xmlns="http://www.w3.org/2000/svg">
<g clip-path="url(#clip0_14_196)">
<path d="M234.45 48.8249C234.537 49.1084 234.581 49.4008 234.582 49.6945V95.3495C234.582 95.9355 234.407 96.5111 234.073 97.0182C233.74 97.5253 233.26 97.9458 232.683 98.2373L189.177 120.299V164.028C189.177 165.218 188.458 166.316 187.287 166.915L96.4709 212.962C96.263 213.066 96.0363 213.132 95.8095 213.203C95.7245 213.228 95.6441 213.274 95.5544 213.294C94.9195 213.442 94.2522 213.442 93.6174 213.294C93.5135 213.27 93.419 213.22 93.3198 213.186C93.1119 213.12 92.8946 213.061 92.6962 212.962L1.89918 166.915C1.32238 166.624 0.843108 166.203 0.509683 165.696C0.176257 165.189 0.000457029 164.614 0 164.028L0 27.0626C0 26.763 0.0472433 26.4717 0.132281 26.1888C0.160627 26.0931 0.226768 26.0057 0.264563 25.91C0.335428 25.7352 0.401568 25.5563 0.505504 25.394C0.576369 25.2858 0.680304 25.1984 0.765342 25.0986C0.874002 24.9654 0.973213 24.8281 1.10077 24.7116C1.20943 24.6159 1.35116 24.5451 1.47399 24.4619C1.611 24.3621 1.73383 24.2539 1.88973 24.1748L47.2953 1.15173C47.8702 0.860373 48.5218 0.707031 49.185 0.707031C49.8483 0.707031 50.4999 0.860373 51.0748 1.15173L96.4756 24.1748H96.4851C96.6363 24.258 96.7638 24.3621 96.9008 24.4578C97.0237 24.541 97.1607 24.6159 97.2693 24.7074C97.4016 24.8281 97.4961 24.9654 97.6095 25.0986C97.6898 25.1984 97.7984 25.2858 97.8646 25.394C97.9732 25.5604 98.0347 25.7352 98.1103 25.91C98.148 26.0057 98.2142 26.0931 98.2425 26.1929C98.3295 26.4765 98.374 26.7689 98.3748 27.0626V112.61L136.207 93.423V49.6904C136.207 49.3991 136.255 49.1037 136.34 48.8249C136.373 48.725 136.434 48.6376 136.472 48.5419C136.547 48.3671 136.614 48.1882 136.717 48.0259C136.788 47.9178 136.892 47.8304 136.973 47.7305C137.086 47.5974 137.18 47.46 137.313 47.3435C137.421 47.2478 137.558 47.1771 137.681 47.0939C137.823 46.994 137.946 46.8858 138.097 46.8068L183.507 23.7837C184.082 23.4919 184.734 23.3383 185.397 23.3383C186.06 23.3383 186.712 23.4919 187.287 23.7837L232.688 46.8068C232.848 46.89 232.971 46.994 233.113 47.0897C233.231 47.1729 233.368 47.2478 233.477 47.3394C233.609 47.46 233.703 47.5974 233.817 47.7305C233.902 47.8304 234.006 47.9178 234.072 48.0259C234.181 48.1882 234.242 48.3671 234.318 48.5419C234.36 48.6376 234.421 48.725 234.45 48.8249ZM227.014 93.423V55.4576L211.126 63.5134L189.177 74.6442V112.61L227.018 93.423H227.014ZM181.613 162.101V124.111L160.023 134.971L98.3701 165.963V204.311L181.613 162.101ZM7.56838 32.8256V162.101L90.8017 204.307V165.967L47.3189 144.292L47.3048 144.283L47.2859 144.275C47.1394 144.2 47.0166 144.092 46.8796 144.001C46.7615 143.917 46.6245 143.851 46.5205 143.759L46.5111 143.747C46.3882 143.643 46.3032 143.514 46.1993 143.397C46.1048 143.285 45.9914 143.189 45.9158 143.073L45.9111 143.06C45.826 142.935 45.7741 142.786 45.7127 142.644C45.6512 142.519 45.5709 142.403 45.5331 142.27C45.4859 142.111 45.4764 141.941 45.4575 141.779C45.4386 141.654 45.4009 141.529 45.4009 141.404V52.0122L23.4563 40.8773L7.56838 32.8256ZM49.1898 7.88431L11.362 27.0626L49.1803 46.2409L87.0033 27.0584L49.1803 7.88431H49.1898ZM68.8619 127.573L90.8064 116.446V32.8256L74.9185 40.8814L52.9692 52.0122V135.633L68.8619 127.573ZM185.397 30.5163L147.574 49.6945L185.397 68.8728L223.215 49.6904L185.397 30.5163ZM181.613 74.6442L159.664 63.5134L143.776 55.4576V93.423L165.72 104.55L181.613 112.61V74.6442ZM94.5812 160.2L150.059 132.304L177.791 118.364L139.996 99.1985L96.4804 121.265L56.8196 141.375L94.5812 160.2Z" fill="white" fill-opacity="0.4"/>
</g>
<defs>
<clipPath id="clip0_14_196">
<rect width="235" height="214" fill="white"/>
</clipPath>
</defs>
</svg>
