<svg width="40" height="58" viewBox="0 0 40 58" fill="none" xmlns="http://www.w3.org/2000/svg">
<path d="M17.9833 28.7735C19.0993 29.8233 20.9118 29.8233 22.0279 28.7735L36.3136 15.336C37.4297 14.2862 37.4297 12.5813 36.3136 11.5315C35.1975 10.4817 33.385 10.4817 32.269 11.5315L20.0011 23.0709L7.73326 11.5399C6.61719 10.4901 4.80469 10.4901 3.68862 11.5399C2.57254 12.5897 2.57254 14.2946 3.68862 15.3444L17.9743 28.7819L17.9833 28.7735Z" fill="white" fill-opacity="0.45"/>
<path d="M17.9833 43.7735C19.0993 44.8233 20.9118 44.8233 22.0279 43.7735L36.3136 30.336C37.4297 29.2862 37.4297 27.5813 36.3136 26.5315C35.1975 25.4817 33.385 25.4817 32.269 26.5315L20.0011 38.0709L7.73326 26.5399C6.61719 25.4901 4.80469 25.4901 3.68862 26.5399C2.57254 27.5897 2.57254 29.2946 3.68862 30.3444L17.9743 43.7819L17.9833 43.7735Z" fill="#777777" fill-opacity="0.466667"/>
</svg>
